<svg fill="none" height="289" viewBox="0 0 717 289" width="717" xmlns="http://www.w3.org/2000/svg"><path d="m240.968 131.334v-80.3501h48.58v13.91h-34.36v19.33h24.71v13.92h-24.71v33.1901z" fill="#31c2de"/><path d="m328.488 132.344c-11.71.22-21.95-9.95-21.73-21.68v-39.0201c-.22-11.72 10.02-21.8999 21.73-21.6799h5.17c11.69-.22 21.9 9.9799 21.68 21.6799v39.0201c0 2.98-.57 5.82-1.71 8.46-3.32 7.91-11.34 13.3-19.97 13.22zm.31-68.46c-4.22-.06-7.89 3.5299-7.82 7.7599v39.0201c-.07 4.23 3.58 7.88 7.82 7.82h4.56c4.24.08 7.82-3.6 7.76-7.82v-39.0201c.07-4.22-3.54-7.8299-7.76-7.7599z" fill="#31c2de"/><path d="m399.498 132.344c-8.64.08-16.71-5.29-20.02-13.22-1.13-2.63-1.71-5.48-1.71-8.46v-59.6901h14.22v59.6901c-.07 4.23 3.58 7.88 7.82 7.82h4.56c3.17.04 5.96-1.95 7.17-4.81.4-.92.59-1.91.59-3.01v-59.6901h14.22v59.6901c0 2.98-.57 5.82-1.71 8.46-3.32 7.91-11.34 13.3-19.97 13.22z" fill="#31c2de"/><path d="m488.908 131.334-24.84-43.3801v43.3801h-14.22v-80.3501h9.46l24.9 43.51v-43.51h14.22v80.3501z" fill="#31c2de"/><path d="m522.938 131.334v-80.35h26.85c8.65-.08 16.73 5.3 20.03 13.25 1.13 2.65 1.7 5.5 1.7 8.48v36.94c0 2.98-.57 5.82-1.71 8.46-3.31 7.93-11.38 13.3-20.02 13.22-.01 0-26.85 0-26.85 0zm26.54-13.91c4.21.06 7.89-3.53 7.82-7.76v-36.94c.02-2.14-.84-4.05-2.3-5.52-1.47-1.45-3.38-2.31-5.52-2.3h-12.33v52.52z" fill="#31c2de"/><path d="m594.958 131.334v-80.3501h48.58v13.91h-34.36v19.33h27.82v13.92h-27.82v19.2801h34.36v13.91z" fill="#31c2de"/><path d="m699.778 131.334-19.71-31.02h-3.02v31.02h-14.22v-80.3501h26.9c5.77-.04 11.32 2.33 15.33 6.34 4.02 4.01 6.38 9.62 6.34 15.39v5.88c.12 9.4-6.33 18.09-15.29 20.79l20.31 31.9601h-16.64zm-10.36-44.9301c4.24.08 7.82-3.6 7.76-7.82-.11-2.09.39-7.02-.59-8.89-1.21-2.86-4-4.85-7.17-4.81h-12.38v21.51h12.38z" fill="#31c2de"/><g fill="#316097"><path d="m260.158 247.324c-11.54.22-21.64-9.81-21.42-21.37v-38.35c0-2.94.57-5.74 1.68-8.34 3.26-7.81 11.22-13.11 19.74-13.03h5.08c11.53-.21 21.58 9.84 21.37 21.37v6.18l-14.11 2.19v-8.37c.02-2.07-.82-3.94-2.21-5.35-1.41-1.39-3.29-2.23-5.35-2.21h-4.48c-4.11-.05-7.69 3.44-7.61 7.56v38.35c-.06 4.12 3.49 7.68 7.61 7.61h4.48c2.06.02 3.93-.8 5.33-2.21 1.4-1.44 2.25-3.31 2.23-5.4v-8.4l14.11 2.3c0 4.55.34 10.32-1.68 14.44-3.27 7.8-11.18 13.11-19.69 13.03z"/><path d="m379.008 246.324v-65.29h-17.03v-13.8h48.16v13.8h-17.03v65.29z"/><path d="m486.498 246.324v-79.09h14.11v65.29h27.34v13.8z"/><path d="m552.498 246.324v-37l-20.82-42.09h15.49l12.31 24.86 12.31-24.86h15.47l-20.66 41.98v37.11z"/><path d="m622.588 247.324c-11.51.18-22.01-9.74-21.87-21.37v-6.1l14.1-2.3v8.4c-.01 3.16 2.19 5.84 5.03 7.01 1.83.98 5.56.49 7.57.6 4.12.04 8.07-3.39 8.06-7.61v-2.14c.33-15.3-33.66-7.63-33.77-34.86-.84-12.07 9.27-22.93 21.42-22.71h4.58c8.51-.08 16.42 5.24 19.69 13.03 1.91 3.89 1.72 9.14 1.68 13.45l-14.1 2.3v-7.4c.06-4.11-3.45-7.63-7.56-7.56h-3.98c-4.86.02-8.12 4.19-7.61 8.91.02 7.55 8.9 9 14.46 11.6 4.54 1.85 9.22 3.89 12.79 7.27 5.02 4.57 6.88 11.09 6.51 18.13.14 11.62-10.36 21.56-21.87 21.37 0-.02-5.13-.02-5.13-.02z"/><path d="m681.908 246.324v-65.29h-17.04v-13.8h48.17v13.8h-17.03v65.29z"/><path d="m340.988 246.324h14.66l-23.28-79.1h-9.14l-23.17 79.1h14.71l3.73-13.27h18.71zm-13.12-46.21c.97 3.4 5.14 17.93 5.99 21.02h-11.97c.85-3.01 5.03-17.71 5.98-21.02z"/><path d="m457.398 246.324h14.66l-23.28-79.1h-9.14l-23.17 79.1h14.71l3.73-13.27h18.7zm-13.13-46.21c.97 3.4 5.14 17.93 5.99 21.02h-11.97c.86-3.01 5.04-17.71 5.98-21.02z"/></g><path d="m109.548 116.934c0 3.79-3.07 6.86-6.86 6.86-9.0901-.31-9.0801-13.42 0-13.73 3.79 0 6.86 3.08 6.86 6.87z" fill="#31c2de"/><path d="m103.028 288.074c-34.0501.25-66.8701-17.62-85.6801-45.87h.07c-27.42-39.31-21.89998-96.79 12.57-130.13 44.41-45.8801 123.7301-37.6501 158.3601 15.76h-19.73c-16.58-19.15-40.69-30.2101-65.95-30.2001-74.7901-.16-114.8301 89.5101-65.0301 145.2101 31.46 37.17 92.4701 39.41 126.4501 4.51h.06c1.77-1.71 3.35-3.36 4.83-5.03 2.83-3.6 3.51-4.71 4.44-6.05h18.25l-1.34 2.74c-4.27 8.99-13.24 18.09-20.97 24.8h-.04c-18.44 15.66-42.07 24.32-66.29 24.26z" fill="#316097"/><path d="m175.428 8.79396-23.29-7.54001c-12.99-4.39-27.85 3.15999-31.86 16.19995l-21.5701 57.2401c5.4401-.21 11.0101-.12 16.3901.44l8.89-23.38 24.63 7.86 4.33-13.58-23.89-7.62 6.1-16.04c1.54-5.01 7.19-7.88 12.15-6.21l23.29 7.5399c5 1.62 7.8 7.0201 6.24 12.0401l-.56 1.81 14.97 4.64c5.17-13.51-1.96-28.98-15.82-33.40004z" fill="#316097"/><path d="m102.678 260.294c-61.7701.19-97.63008-73.03-59.0901-121.74 19.74-1.48 41.4.89 58.0901 7.32 3.09 1.17 6.47 2.25 9.74 3.19 7.62-9.63 22.43-7.05 26.42 4.54 10.87.74 21.62.34 32.57-1.17 23.94 48.82-13.18 108.51-67.73 107.86zm20.79-67.98c-9.68 0-17.56 7.88-17.56 17.56.96 23.3 34.17 23.29 35.13 0-.01-9.68-7.88-17.56-17.57-17.56zm-52.2101-27.47c-6.22 0-11.28 5.06-11.28 11.28.62 14.96 21.94 14.96 22.56 0 0-6.22-5.06-11.28-11.28-11.28z" fill="#31c2de"/></svg>